name rise30.8019peak61.5557fall86.2505.mot
datacolumns 19
datarows 24
range 15.26827900000000 15.30661200000000
endheader
time	ground_force1_vx	ground_force1_vy	ground_force1_vz	ground_force1_px	ground_force1_py	ground_force1_pz	ground_force2_vx	ground_force2_vy	ground_force2_vz	ground_force2_px	ground_force2_py	ground_force2_pz	ground_torque1_x	ground_torque1_y	ground_torque1_z	ground_torque2_x	ground_torque2_y	ground_torque2_z	
15.26827900000000	-5.19788500000000	681.74461199999996	34.19646600000000	0.09983000000000	0.00000000000000	0.10611200000000	0.00000000000000	0.00000000000000	0.00000000000000	0.00000000000000	0.00000000000000	0.00000000000000	0.00000000000000	9.94353100000000	0.00000000000000	0.00000000000000	0.00000000000000	0.00000000000000	
15.26994300000000	-5.72597700000000	682.59875799999998	34.17634400000000	0.09884600000000	0.00000000000000	0.10612800000000	0.00000000000000	0.00000000000000	0.00000000000000	0.00000000000000	0.00000000000000	0.00000000000000	0.00000000000000	10.03064500000000	0.00000000000000	0.00000000000000	0.00000000000000	0.00000000000000	
15.27161500000000	-6.25817100000000	683.46426599999995	34.15565100000000	0.09786400000000	0.00000000000000	0.10614500000000	0.00000000000000	0.00000000000000	0.00000000000000	0.00000000000000	0.00000000000000	0.00000000000000	0.00000000000000	10.11937500000000	0.00000000000000	0.00000000000000	0.00000000000000	0.00000000000000	
15.27328300000000	-6.79423800000000	684.34167800000000	34.13460500000000	0.09688200000000	0.00000000000000	0.10616000000000	0.00000000000000	0.00000000000000	0.00000000000000	0.00000000000000	0.00000000000000	0.00000000000000	0.00000000000000	10.20967300000000	0.00000000000000	0.00000000000000	0.00000000000000	0.00000000000000	
15.27494300000000	-7.33395300000000	685.23160600000006	34.11343500000000	0.09590300000000	0.00000000000000	0.10617600000000	0.00000000000000	0.00000000000000	0.00000000000000	0.00000000000000	0.00000000000000	0.00000000000000	0.00000000000000	10.30148600000000	0.00000000000000	0.00000000000000	0.00000000000000	0.00000000000000	
15.27661200000000	-7.87709000000000	686.13472700000000	34.09237800000000	0.09492500000000	0.00000000000000	0.10619200000000	0.00000000000000	0.00000000000000	0.00000000000000	0.00000000000000	0.00000000000000	0.00000000000000	0.00000000000000	10.39475900000000	0.00000000000000	0.00000000000000	0.00000000000000	0.00000000000000	
15.27828200000000	-8.42343100000000	687.05177700000002	34.07168100000000	0.09394900000000	0.00000000000000	0.10620800000000	0.00000000000000	0.00000000000000	0.00000000000000	0.00000000000000	0.00000000000000	0.00000000000000	0.00000000000000	10.48943600000000	0.00000000000000	0.00000000000000	0.00000000000000	0.00000000000000	
15.27994100000000	-8.97275500000000	687.98354700000004	34.05159700000000	0.09297400000000	0.00000000000000	0.10622400000000	0.00000000000000	0.00000000000000	0.00000000000000	0.00000000000000	0.00000000000000	0.00000000000000	0.00000000000000	10.58545400000000	0.00000000000000	0.00000000000000	0.00000000000000	0.00000000000000	
15.28160900000000	-9.52484800000000	688.93087600000001	34.03238500000000	0.09200100000000	0.00000000000000	0.10623900000000	0.00000000000000	0.00000000000000	0.00000000000000	0.00000000000000	0.00000000000000	0.00000000000000	0.00000000000000	10.68275100000000	0.00000000000000	0.00000000000000	0.00000000000000	0.00000000000000	
15.28327400000000	-10.07949600000000	689.89464699999996	34.01431000000000	0.09103000000000	0.00000000000000	0.10625500000000	0.00000000000000	0.00000000000000	0.00000000000000	0.00000000000000	0.00000000000000	0.00000000000000	0.00000000000000	10.78125800000000	0.00000000000000	0.00000000000000	0.00000000000000	0.00000000000000	
15.28494300000000	-10.63649000000000	690.87577899999997	33.99763900000000	0.09006000000000	0.00000000000000	0.10627100000000	0.00000000000000	0.00000000000000	0.00000000000000	0.00000000000000	0.00000000000000	0.00000000000000	0.00000000000000	10.88090400000000	0.00000000000000	0.00000000000000	0.00000000000000	0.00000000000000	
15.28661400000000	-11.19562100000000	691.87522200000001	33.98264600000000	0.08909200000000	0.00000000000000	0.10628700000000	0.00000000000000	0.00000000000000	0.00000000000000	0.00000000000000	0.00000000000000	0.00000000000000	0.00000000000000	10.98161700000000	0.00000000000000	0.00000000000000	0.00000000000000	0.00000000000000	
15.28827500000000	-11.75668300000000	692.89394900000002	33.96960400000000	0.08812500000000	0.00000000000000	0.10630400000000	0.00000000000000	0.00000000000000	0.00000000000000	0.00000000000000	0.00000000000000	0.00000000000000	0.00000000000000	11.08331700000000	0.00000000000000	0.00000000000000	0.00000000000000	0.00000000000000	
15.28994600000000	-12.31947400000000	693.93295000000001	33.95879100000000	0.08715900000000	0.00000000000000	0.10632100000000	0.00000000000000	0.00000000000000	0.00000000000000	0.00000000000000	0.00000000000000	0.00000000000000	0.00000000000000	11.18592400000000	0.00000000000000	0.00000000000000	0.00000000000000	0.00000000000000	
15.29161400000000	-12.88379000000000	694.99322800000004	33.95048200000000	0.08619400000000	0.00000000000000	0.10633800000000	0.00000000000000	0.00000000000000	0.00000000000000	0.00000000000000	0.00000000000000	0.00000000000000	0.00000000000000	11.28935300000000	0.00000000000000	0.00000000000000	0.00000000000000	0.00000000000000	
15.29328000000000	-13.44943000000000	696.07578500000000	33.94495600000000	0.08523000000000	0.00000000000000	0.10635500000000	0.00000000000000	0.00000000000000	0.00000000000000	0.00000000000000	0.00000000000000	0.00000000000000	0.00000000000000	11.39351600000000	0.00000000000000	0.00000000000000	0.00000000000000	0.00000000000000	
15.29494100000000	-14.01619300000000	697.18162099999995	33.94248900000000	0.08426700000000	0.00000000000000	0.10637300000000	0.00000000000000	0.00000000000000	0.00000000000000	0.00000000000000	0.00000000000000	0.00000000000000	0.00000000000000	11.49831900000000	0.00000000000000	0.00000000000000	0.00000000000000	0.00000000000000	
15.29661300000000	-14.58387800000000	698.31172400000003	33.94335500000000	0.08330400000000	0.00000000000000	0.10639100000000	0.00000000000000	0.00000000000000	0.00000000000000	0.00000000000000	0.00000000000000	0.00000000000000	0.00000000000000	11.60366700000000	0.00000000000000	0.00000000000000	0.00000000000000	0.00000000000000	
15.29827900000000	-15.15228300000000	699.46706500000005	33.94782900000000	0.08234200000000	0.00000000000000	0.10640900000000	0.00000000000000	0.00000000000000	0.00000000000000	0.00000000000000	0.00000000000000	0.00000000000000	0.00000000000000	11.70945900000000	0.00000000000000	0.00000000000000	0.00000000000000	0.00000000000000	
15.29994700000000	-15.72120400000000	700.64858600000002	33.95618000000000	0.08138100000000	0.00000000000000	0.10642900000000	0.00000000000000	0.00000000000000	0.00000000000000	0.00000000000000	0.00000000000000	0.00000000000000	0.00000000000000	11.81559300000000	0.00000000000000	0.00000000000000	0.00000000000000	0.00000000000000	
15.30161000000000	-16.29043800000000	701.85719700000004	33.96867500000000	0.08041900000000	0.00000000000000	0.10644800000000	0.00000000000000	0.00000000000000	0.00000000000000	0.00000000000000	0.00000000000000	0.00000000000000	0.00000000000000	11.92195900000000	0.00000000000000	0.00000000000000	0.00000000000000	0.00000000000000	
15.30327800000000	-16.85977700000000	703.09376999999995	33.98557700000000	0.07945800000000	0.00000000000000	0.10646800000000	0.00000000000000	0.00000000000000	0.00000000000000	0.00000000000000	0.00000000000000	0.00000000000000	0.00000000000000	12.02844800000000	0.00000000000000	0.00000000000000	0.00000000000000	0.00000000000000	
15.30494700000000	-17.42901000000000	704.35912399999995	34.00714300000000	0.07849700000000	0.00000000000000	0.10648900000000	0.00000000000000	0.00000000000000	0.00000000000000	0.00000000000000	0.00000000000000	0.00000000000000	0.00000000000000	12.13494300000000	0.00000000000000	0.00000000000000	0.00000000000000	0.00000000000000	
15.30661200000000	-17.99792400000000	705.65402900000004	34.03362500000000	0.07753600000000	0.00000000000000	0.10651000000000	0.00000000000000	0.00000000000000	0.00000000000000	0.00000000000000	0.00000000000000	0.00000000000000	0.00000000000000	12.24132600000000	0.00000000000000	0.00000000000000	0.00000000000000	0.00000000000000	
